<?xml version="1.0" encoding="utf-8"?>
<!-- Generator: Adobe Illustrator 16.0.0, SVG Export Plug-In . SVG Version: 6.00 Build 0)  -->
<!DOCTYPE svg PUBLIC "-//W3C//DTD SVG 1.1//EN" "http://www.w3.org/Graphics/SVG/1.1/DTD/svg11.dtd">
<svg version="1.1" id="icons" xmlns="http://www.w3.org/2000/svg" xmlns:xlink="http://www.w3.org/1999/xlink" x="0px" y="0px"
	 width="64px" height="64px" viewBox="0 0 64 64" enable-background="new 0 0 64 64" xml:space="preserve">
<g>
	<path fill="#E6E9ED" d="M15,30l0.91,10H12C5.92,40,1,35.08,1,29s4.92-11,11-11h1.1h0.011c1-9.55,9.08-17,18.89-17
		c7.64,0,14.23,4.51,17.24,11.01C56.86,12.14,63,18.35,63,26c0,7.73-6.27,14-14,14h-0.91L49,30H15z"/>
	<path fill="#CCD1D9" d="M63,30c0,7.74-6.27,14-14,14h-1.27l0.359-4H49c7.73,0,14-6.27,14-14V30z"/>
	<path fill="#656D78" d="M50,26c0.55,0,1,0.45,1,1v2c0,0.55-0.45,1-1,1l0,0c-0.55,0-1.45,0-2,0H16c-0.55,0-1.45,0-2,0l0,0
		c-0.55,0-1-0.45-1-1v-2c0-0.55,0.45-1,1-1H50z"/>
	<polygon fill="#545C66" points="15.91,40 15,30 49,30 48.09,40 47.73,44 46,63 18,63 16.27,44 	"/>
	<path fill="#CCD1D9" d="M1,29c0,6.08,4.92,11,11,11h3.91l0.359,4H12C5.92,44,1,39.08,1,33V29z"/>
	<g>
		<path fill="#434A54" d="M25,59c-0.514,0-0.95-0.393-0.995-0.913l-2.002-22.999c-0.048-0.551,0.359-1.035,0.909-1.083
			c0.537-0.063,1.035,0.359,1.083,0.909l2.002,22.999c0.048,0.551-0.359,1.035-0.909,1.083C25.059,58.999,25.029,59,25,59z"/>
	</g>
	<g>
		<path fill="#434A54" d="M32.001,59c-0.553,0-1-0.447-1-1V35.001c0-0.553,0.447-1,1-1s1,0.447,1,1V58
			C33.001,58.553,32.554,59,32.001,59z"/>
	</g>
	<g>
		<path fill="#434A54" d="M39.002,59c-0.029,0-0.059-0.001-0.088-0.004c-0.55-0.048-0.957-0.532-0.909-1.083l2.002-22.999
			c0.048-0.55,0.544-0.964,1.083-0.909c0.55,0.048,0.957,0.532,0.909,1.083l-2.002,22.999C39.952,58.607,39.516,59,39.002,59z"/>
	</g>
</g>
</svg>
